<svg width="258" height="53" viewBox="0 0 258 53" fill="none" xmlns="http://www.w3.org/2000/svg">
<g clip-path="url(#clip0_30_324)">
<mask id="mask0_30_324" style="mask-type:luminance" maskUnits="userSpaceOnUse" x="0" y="8" width="19" height="19">
<path d="M0 8.10181H18.6585V26.5H0V8.10181Z" fill="white"/>
</mask>
<g mask="url(#mask0_30_324)">
<path d="M0 8.10181H18.6585V26.5H0V8.10181Z" fill="#355E3B"/>
</g>
<mask id="mask1_30_324" style="mask-type:luminance" maskUnits="userSpaceOnUse" x="0" y="29" width="19" height="19">
<path d="M0 29.2825H18.6585V47.6806H0V29.2825Z" fill="white"/>
</mask>
<g mask="url(#mask1_30_324)">
<path d="M0 29.2825H18.6585V47.6806H0V29.2825Z" fill="#003366"/>
</g>
<mask id="mask2_30_324" style="mask-type:luminance" maskUnits="userSpaceOnUse" x="21" y="29" width="20" height="19">
<path d="M21.7379 29.2825H40.3965V47.6806H21.7379V29.2825Z" fill="white"/>
</mask>
<g mask="url(#mask2_30_324)">
<path d="M21.7379 29.2825H40.3965V47.6806H21.7379V29.2825Z" fill="#FF6600"/>
</g>
<mask id="mask3_30_324" style="mask-type:luminance" maskUnits="userSpaceOnUse" x="21" y="8" width="20" height="19">
<path d="M21.7379 8.10181H40.3965V26.5H21.7379V8.10181Z" fill="white"/>
</mask>
<g mask="url(#mask3_30_324)">
<path d="M21.7379 8.10181H40.3965V26.5H21.7379V8.10181Z" fill="#EEEEEE"/>
</g>
<path d="M62.7192 41.5069C60.4082 41.5069 58.1742 41.1985 56.0172 40.5822C53.8616 39.9639 52.1294 39.1606 50.8214 38.1723L53.1169 33.1484C54.369 34.0559 55.8576 34.7839 57.5821 35.3319C59.308 35.8805 61.0346 36.1545 62.7611 36.1545C64.6816 36.1545 66.1009 35.8743 67.0192 35.3126C67.9374 34.7494 68.3965 34.0014 68.3965 33.0683C68.3965 32.3824 68.1249 31.8123 67.5819 31.3596C67.0401 30.9069 66.3452 30.5439 65.4962 30.2693C64.6466 29.9932 63.4981 29.691 62.0501 29.3611C59.8231 28.8408 57.9999 28.3197 56.5799 27.7987C55.1613 27.2763 53.9435 26.4392 52.9266 25.2867C51.9111 24.1329 51.4037 22.5953 51.4037 20.6741C51.4037 19.0013 51.8628 17.4858 52.781 16.1277C53.7006 14.7682 55.0857 13.6902 56.9354 12.8952C58.7866 12.0988 61.0486 11.7 63.7214 11.7C65.5858 11.7 67.4083 11.9201 69.1888 12.3597C70.9706 12.7979 72.5299 13.4294 73.8667 14.2533L71.7783 19.3159C69.0796 17.8074 66.3795 17.0524 63.6794 17.0524C61.7869 17.0524 60.3879 17.3547 59.483 17.9578C58.5794 18.5617 58.128 19.3573 58.128 20.3456C58.128 21.3338 58.6494 22.0681 59.6929 22.5484C60.7357 23.0287 62.3286 23.5028 64.4716 23.97C66.7 24.491 68.5232 25.0128 69.9418 25.5352C71.3618 26.0562 72.5796 26.8795 73.5951 28.0057C74.612 29.1306 75.1208 30.653 75.1208 32.5742C75.1208 34.2194 74.654 35.7225 73.7211 37.082C72.7875 38.4401 71.3891 39.5181 69.5247 40.3144C67.6602 41.1094 65.3913 41.5069 62.7192 41.5069Z" fill="white"/>
<path d="M102.383 35.6604V41.0128H79.7547V12.1941H101.84V17.5465H86.4762V23.8044H100.045V28.9912H86.4762V35.6604H102.383Z" fill="white"/>
<path d="M127.017 34.8378H113.448L110.858 41.0128H103.929L116.955 12.1941H123.635L136.703 41.0128H129.606L127.017 34.8378ZM124.889 29.7724L120.253 18.7418L115.62 29.7724H124.889Z" fill="white"/>
<path d="M139.752 12.1941H146.516V35.5776H161.171V41.0128H139.752V12.1941Z" fill="white"/>
<path d="M177.621 12.1941C180.209 12.1941 182.457 12.6206 184.363 13.4722C186.27 14.3224 187.739 15.5301 188.769 17.0938C189.799 18.6583 190.314 20.5105 190.314 22.6505C190.314 24.765 189.799 26.6117 188.769 28.1907C187.739 29.7683 186.27 30.9753 184.363 31.8124C182.457 32.6502 180.209 33.0684 177.621 33.0684H171.734V41.0128H164.971V12.1941H177.621ZM177.246 27.6331C179.277 27.6331 180.821 27.2011 181.879 26.3357C182.938 25.471 183.467 24.2426 183.467 22.6505C183.467 21.0316 182.938 19.7901 181.879 18.9267C180.821 18.062 179.277 17.6294 177.246 17.6294H171.734V27.6331H177.246Z" fill="white"/>
<path d="M214.155 41.0128L208.517 32.9855H202.297V41.0128H195.533V12.1941H208.184C210.772 12.1941 213.019 12.6206 214.925 13.4722C216.832 14.3224 218.301 15.5301 219.331 17.0938C220.362 18.6583 220.877 20.5105 220.877 22.6505C220.877 24.7926 220.354 26.6394 219.309 28.1907C218.265 29.7407 216.784 30.9263 214.863 31.7489L221.42 41.0128H214.155ZM214.029 22.6505C214.029 21.0316 213.5 19.7901 212.442 18.9267C211.384 18.062 209.839 17.6294 207.809 17.6294H202.297V27.6745H207.809C209.839 27.6745 211.384 27.2356 212.442 26.3578C213.5 25.4786 214.029 24.2426 214.029 22.6505Z" fill="white"/>
<path d="M240.375 41.5069C237.34 41.5069 234.605 40.8624 232.17 39.5719C229.734 38.2821 227.828 36.5051 226.45 34.2415C225.073 31.9766 224.384 29.4301 224.384 26.6034C224.384 23.7768 225.073 21.2317 226.45 18.9681C227.828 16.7032 229.734 14.9255 232.17 13.635C234.605 12.3452 237.34 11.7 240.375 11.7C243.407 11.7 246.134 12.3452 248.555 13.635C250.977 14.9255 252.884 16.7032 254.277 18.9681C255.669 21.2317 256.365 23.7768 256.365 26.6034C256.365 29.4301 255.669 31.9766 254.277 34.2415C252.884 36.5051 250.977 38.2821 248.555 39.5719C246.134 40.8624 243.407 41.5069 240.375 41.5069ZM240.375 35.826C242.099 35.826 243.657 35.4354 245.05 34.6528C246.442 33.8709 247.535 32.7806 248.328 31.3817C249.121 29.9815 249.518 28.3887 249.518 26.6034C249.518 24.8202 249.121 23.2288 248.328 21.8279C247.535 20.4277 246.442 19.3366 245.05 18.5541C243.657 17.7722 242.099 17.3809 240.375 17.3809C238.648 17.3809 237.089 17.7722 235.697 18.5541C234.306 19.3366 233.214 20.4277 232.422 21.8279C231.628 23.2288 231.232 24.8202 231.232 26.6034C231.232 28.3887 231.628 29.9815 232.422 31.3817C233.214 32.7806 234.306 33.8709 235.697 34.6528C237.089 35.4354 238.648 35.826 240.375 35.826Z" fill="white"/>
</g>
<defs>
<clipPath id="clip0_30_324">
<rect width="258" height="53" fill="white"/>
</clipPath>
</defs>
</svg>
