<svg width="150" height="32" viewBox="0 0 150 32" fill="none" xmlns="http://www.w3.org/2000/svg">
<g clip-path="url(#clip0_4_334)">
<mask id="mask0_4_334" style="mask-type:luminance" maskUnits="userSpaceOnUse" x="0" y="4" width="11" height="12">
<path d="M0 4.77702H10.848V15.625H0V4.77702Z" fill="white"/>
</mask>
<g mask="url(#mask0_4_334)">
<path d="M0 4.77702H10.848V15.625H0V4.77702Z" fill="#355E3B"/>
</g>
<mask id="mask1_4_334" style="mask-type:luminance" maskUnits="userSpaceOnUse" x="0" y="17" width="11" height="12">
<path d="M0 17.2656H10.848V28.1136H0V17.2656Z" fill="white"/>
</mask>
<g mask="url(#mask1_4_334)">
<path d="M0 17.2656H10.848V28.1136H0V17.2656Z" fill="#003366"/>
</g>
<mask id="mask2_4_334" style="mask-type:luminance" maskUnits="userSpaceOnUse" x="12" y="17" width="12" height="12">
<path d="M12.6383 17.2656H23.4863V28.1136H12.6383V17.2656Z" fill="white"/>
</mask>
<g mask="url(#mask2_4_334)">
<path d="M12.6383 17.2656H23.4863V28.1136H12.6383V17.2656Z" fill="#FF6600"/>
</g>
<mask id="mask3_4_334" style="mask-type:luminance" maskUnits="userSpaceOnUse" x="12" y="4" width="12" height="12">
<path d="M12.6383 4.77702H23.4863V15.625H12.6383V4.77702Z" fill="white"/>
</mask>
<g mask="url(#mask3_4_334)">
<path d="M12.6383 4.77702H23.4863V15.625H12.6383V4.77702Z" fill="#EEEEEE"/>
</g>
<path d="M36.4646 24.4734C35.121 24.4734 33.8222 24.2915 32.5681 23.9282C31.3149 23.5636 30.3078 23.0899 29.5473 22.5073L30.8819 19.545C31.6099 20.0801 32.4754 20.5094 33.478 20.8324C34.4814 21.1559 35.4852 21.3175 36.489 21.3175C37.6056 21.3175 38.4308 21.1523 38.9646 20.8211C39.4985 20.489 39.7654 20.0479 39.7654 19.4978C39.7654 19.0934 39.6075 18.7573 39.2918 18.4903C38.9768 18.2234 38.5728 18.0094 38.0792 17.8474C37.5852 17.6847 36.9175 17.5064 36.0756 17.3119C34.7809 17.0051 33.7209 16.6979 32.8953 16.3907C32.0705 16.0827 31.3625 15.5891 30.7713 14.9096C30.1808 14.2293 29.8858 13.3227 29.8858 12.1899C29.8858 11.2035 30.1528 10.31 30.6866 9.50921C31.2213 8.70761 32.0266 8.07203 33.102 7.60328C34.1782 7.13372 35.4933 6.89853 37.0473 6.89853C38.1313 6.89853 39.1909 7.02833 40.226 7.28753C41.262 7.54591 42.1686 7.91822 42.9457 8.40406L41.7315 11.3891C40.1625 10.4996 38.5927 10.0545 37.0229 10.0545C35.9226 10.0545 35.1092 10.2327 34.5831 10.5883C34.0578 10.9443 33.7953 11.4135 33.7953 11.9962C33.7953 12.5789 34.0985 13.0118 34.7052 13.295C35.3115 13.5782 36.2376 13.8578 37.4835 14.1332C38.7791 14.4404 39.8391 14.7481 40.6638 15.0561C41.4894 15.3633 42.1975 15.8487 42.7879 16.5128C43.3791 17.176 43.6749 18.0737 43.6749 19.2065C43.6749 20.1765 43.4035 21.0628 42.8611 21.8644C42.3183 22.6651 41.5053 23.3007 40.4213 23.7703C39.3373 24.239 38.0182 24.4734 36.4646 24.4734Z" fill="#36454F"/>
<path d="M59.5249 21.0261V24.1821H46.369V7.18987H59.2092V10.3458H50.2769V14.0356H58.1659V17.0938H50.2769V21.0261H59.5249Z" fill="#36454F"/>
<path d="M73.8469 20.5411H65.9579L64.4524 24.1821H60.4241L67.9973 7.18987H71.8808L79.4784 24.1821H75.3525L73.8469 20.5411ZM72.6099 17.5545L69.9146 11.0505L67.2209 17.5545H72.6099Z" fill="#36454F"/>
<path d="M81.2513 7.18987H85.1836V20.9773H93.7041V24.1821H81.2513V7.18987Z" fill="#36454F"/>
<path d="M103.268 7.18987C104.773 7.18987 106.08 7.44134 107.188 7.94345C108.296 8.44476 109.15 9.15683 109.749 10.0789C110.348 11.0013 110.648 12.0934 110.648 13.3552C110.648 14.602 110.348 15.6908 109.749 16.6218C109.15 17.552 108.296 18.2637 107.188 18.7573C106.08 19.2512 104.773 19.4978 103.268 19.4978H99.8454V24.1821H95.9131V7.18987H103.268ZM103.05 16.2931C104.231 16.2931 105.129 16.0383 105.744 15.5281C106.359 15.0182 106.667 14.294 106.667 13.3552C106.667 12.4006 106.359 11.6686 105.744 11.1596C105.129 10.6498 104.231 10.3946 103.05 10.3946H99.8454V16.2931H103.05Z" fill="#36454F"/>
<path d="M124.509 24.1821L121.231 19.449H117.614V24.1821H113.682V7.18987H121.037C122.542 7.18987 123.848 7.44134 124.956 7.94345C126.065 8.44476 126.919 9.15683 127.518 10.0789C128.117 11.0013 128.417 12.0934 128.417 13.3552C128.417 14.6183 128.113 15.7071 127.505 16.6218C126.899 17.5357 126.037 18.2348 124.921 18.7198L128.732 24.1821H124.509ZM124.436 13.3552C124.436 12.4006 124.128 11.6686 123.513 11.1596C122.897 10.6498 121.999 10.3946 120.819 10.3946H117.614V16.3175H120.819C121.999 16.3175 122.897 16.0587 123.513 15.5411C124.128 15.0227 124.436 14.294 124.436 13.3552Z" fill="#36454F"/>
<path d="M139.753 24.4734C137.988 24.4734 136.398 24.0934 134.982 23.3324C133.566 22.572 132.458 21.5242 131.657 20.1895C130.856 18.8541 130.456 17.3526 130.456 15.686C130.456 14.0193 130.856 12.5186 131.657 11.184C132.458 9.84856 133.566 8.80038 134.982 8.03948C136.398 7.27898 137.988 6.89853 139.753 6.89853C141.516 6.89853 143.101 7.27898 144.509 8.03948C145.917 8.80038 147.026 9.84856 147.835 11.184C148.645 12.5186 149.05 14.0193 149.05 15.686C149.05 17.3526 148.645 18.8541 147.835 20.1895C147.026 21.5242 145.917 22.572 144.509 23.3324C143.101 24.0934 141.516 24.4734 139.753 24.4734ZM139.753 21.1238C140.755 21.1238 141.661 20.8935 142.471 20.4321C143.28 19.971 143.915 19.3281 144.377 18.5033C144.838 17.6777 145.069 16.7386 145.069 15.686C145.069 14.6345 144.838 13.6962 144.377 12.8702C143.915 12.0446 143.28 11.4013 142.471 10.9399C141.661 10.4789 140.755 10.2481 139.753 10.2481C138.749 10.2481 137.842 10.4789 137.033 10.9399C136.225 11.4013 135.59 12.0446 135.129 12.8702C134.667 13.6962 134.437 14.6345 134.437 15.686C134.437 16.7386 134.667 17.6777 135.129 18.5033C135.59 19.3281 136.225 19.971 137.033 20.4321C137.842 20.8935 138.749 21.1238 139.753 21.1238Z" fill="#36454F"/>
</g>
<defs>
<clipPath id="clip0_4_334">
<rect width="150" height="31.25" fill="white"/>
</clipPath>
</defs>
</svg>
